<?xml version="1.0" standalone="no"?>
<!DOCTYPE svg PUBLIC "-//W3C//DTD SVG 20010904//EN"
 "http://www.w3.org/TR/2001/REC-SVG-20010904/DTD/svg10.dtd">
<svg version="1.0" xmlns="http://www.w3.org/2000/svg"
 width="512.000000pt" height="512.000000pt" viewBox="0 0 512.000000 512.000000"
 preserveAspectRatio="xMidYMid meet">

<g transform="translate(0.000000,512.000000) scale(0.100000,-0.100000)"
fill="#000000" stroke="none">
<path d="M3987 4926 c-26 -7 -62 -24 -81 -37 -56 -40 -388 -350 -801 -748
-214 -207 -437 -421 -495 -476 -581 -553 -2094 -2040 -2124 -2087 -7 -13 -83
-313 -167 -666 -147 -619 -152 -645 -136 -670 8 -15 32 -36 53 -46 l36 -19
157 37 156 38 325 -21 c421 -26 763 -39 1245 -47 398 -6 1367 8 1800 27 355
15 915 57 915 69 0 7 -161 21 -445 40 -767 52 -1456 67 -2320 51 -357 -7 -767
-19 -909 -27 -142 -8 -260 -13 -262 -11 -2 2 140 37 316 78 l320 74 678 690
c910 926 1606 1643 2218 2285 371 389 410 433 441 494 22 44 25 59 21 127 -7
113 -31 145 -273 361 -88 79 -71 59 96 -117 93 -97 103 -112 125 -183 18 -61
18 -88 -2 -145 -17 -50 -9 -42 -343 -360 l-164 -156 -51 84 c-97 159 -171 250
-346 425 -172 172 -262 245 -418 339 l-79 48 164 179 c263 286 289 311 340
328 61 21 92 20 153 -3 55 -21 96 -51 235 -175 149 -133 152 -134 67 -40 -136
152 -215 229 -253 247 -50 23 -135 29 -192 13z m-435 -711 c77 -119 116 -170
222 -284 l68 -75 -29 -25 c-16 -14 -103 -87 -194 -162 -416 -346 -856 -761
-1393 -1314 -481 -496 -712 -749 -978 -1071 -61 -74 -116 -134 -122 -134 -7 0
-32 21 -56 46 -70 72 -187 166 -287 232 -51 33 -98 62 -105 65 -8 3 181 200
453 473 531 536 1644 1681 2164 2227 146 154 161 167 173 150 7 -10 44 -67 84
-128z m562 -597 c48 -36 115 -81 148 -99 118 -67 159 -10 -338 -485 -509 -486
-992 -956 -1822 -1773 -326 -321 -594 -582 -596 -580 -1 2 -24 39 -51 83 -59
97 -147 209 -237 302 l-69 72 248 210 c414 350 660 577 1073 991 584 585 927
954 1252 1343 l140 167 81 -82 c45 -45 122 -112 171 -149z m-3451 -2202 c9
-24 106 -155 177 -241 138 -165 394 -398 525 -477 30 -18 55 -35 55 -38 0 -8
-1000 -253 -1007 -247 -6 7 230 1017 238 1017 4 0 9 -6 12 -14z"/>
</g>
</svg>
