<?xml version="1.0" standalone="no"?>
<!DOCTYPE svg PUBLIC "-//W3C//DTD SVG 20010904//EN"
 "http://www.w3.org/TR/2001/REC-SVG-20010904/DTD/svg10.dtd">
<svg version="1.0" xmlns="http://www.w3.org/2000/svg"
 width="512.000000pt" height="512.000000pt" viewBox="0 0 512.000000 512.000000"
 preserveAspectRatio="xMidYMid meet">

<g transform="translate(0.000000,512.000000) scale(0.100000,-0.100000)"
fill="#000000" stroke="none">
<path d="M2583 3523 c4 -49 10 -134 13 -189 l7 -102 -179 -6 c-99 -3 -236 -9
-307 -12 -113 -5 -126 -4 -121 10 8 22 -11 20 -44 -3 -30 -22 -161 -34 -747
-71 -176 -11 -330 -23 -342 -26 -27 -7 -27 7 -8 -185 8 -85 26 -295 40 -468
15 -190 29 -319 36 -327 7 -8 57 -40 112 -71 55 -31 127 -77 160 -101 l61 -45
225 12 c392 21 779 53 1033 88 70 9 130 14 133 11 4 -3 11 -63 18 -133 10
-115 10 -130 -6 -157 -17 -29 -17 -32 0 -51 37 -42 228 -187 240 -183 7 3 59
41 115 84 57 44 220 160 363 257 217 149 482 339 765 548 134 100 155 135 102
174 -42 31 -121 173 -115 206 5 23 2 27 -18 27 -14 0 -104 53 -213 125 -104
69 -248 161 -321 205 -73 44 -138 86 -145 95 -7 8 -16 12 -21 10 -4 -3 -28 4
-51 16 -89 44 -385 203 -433 231 -27 16 -91 40 -141 53 -51 13 -114 33 -140
44 -77 34 -78 34 -71 -66z m130 -9 l46 -16 -51 -101 -52 -102 -7 40 c-4 22 -8
75 -8 118 -1 87 -2 86 72 61z m112 -227 c-65 -232 -194 -606 -273 -792 -76
-176 -78 -179 -112 -186 -19 -4 -37 -6 -39 -3 -5 5 10 41 77 189 70 154 140
348 207 570 56 185 118 340 153 378 17 19 17 19 20 -2 2 -12 -13 -81 -33 -154z
m192 102 c147 -77 233 -129 233 -140 0 -5 -40 -80 -89 -167 -48 -86 -128 -232
-176 -324 -47 -93 -88 -168 -90 -168 -2 0 16 48 39 108 50 125 151 427 166
492 15 70 13 82 -12 78 -15 -2 -37 -30 -75 -98 -30 -52 -52 -86 -49 -75 43
152 56 238 37 249 -21 13 -68 -53 -161 -227 -34 -65 -64 -117 -65 -115 -2 2
24 101 58 221 38 134 66 217 74 217 6 0 56 -23 110 -51z m-287 -56 c-7 -21
-36 -90 -65 -153 -118 -257 -277 -664 -321 -822 l-15 -58 -45 0 c-26 0 -44 5
-44 11 0 22 259 597 353 786 25 49 52 95 61 102 9 8 16 20 16 29 0 19 61 154
68 148 2 -3 -2 -22 -8 -43z m255 -65 c-14 -94 -129 -401 -322 -865 l-38 -93
-57 0 -57 0 20 48 c11 26 52 126 91 222 39 96 100 238 135 315 74 162 212 415
225 415 6 0 7 -18 3 -42z m355 -58 l39 -20 -15 -37 c-9 -20 -87 -179 -173
-352 -87 -174 -206 -418 -266 -544 -59 -125 -110 -225 -113 -223 -9 9 173 522
273 771 71 176 191 425 205 425 6 0 28 -9 50 -20z m-740 -24 c0 -7 -228 -487
-234 -494 -16 -15 178 463 196 486 10 11 38 17 38 8z m-250 -16 c0 -5 -47 -80
-104 -167 -119 -181 -182 -288 -297 -508 -45 -86 -83 -154 -86 -152 -7 8 286
799 303 817 3 3 42 8 87 11 45 3 85 6 90 7 4 1 7 -2 7 -8z m115 -72 c-25 -46
-111 -211 -192 -368 -219 -427 -233 -448 -167 -258 76 218 223 568 278 662 26
45 28 46 77 46 l50 0 -46 -82z m564 -34 c-61 -191 -251 -672 -316 -798 l-20
-39 -16 46 -15 45 48 119 c99 246 334 742 346 730 3 -2 -9 -49 -27 -103z m466
63 c39 -23 71 -50 73 -59 4 -19 -41 -126 -178 -428 -140 -308 -259 -554 -266
-548 -9 10 185 518 310 806 67 156 72 172 58 172 -14 0 -234 -451 -418 -857
-125 -275 -154 -333 -154 -302 0 20 100 315 175 518 100 271 305 741 322 741
5 0 40 -19 78 -43z m-1389 17 c-3 -9 -39 -75 -80 -148 -40 -72 -119 -219 -176
-326 -57 -107 -117 -217 -133 -245 -27 -48 -28 -49 -21 -15 9 48 133 407 202
587 l57 148 40 6 c22 3 57 7 79 8 31 1 37 -2 32 -15z m-206 -9 c0 -3 -32 -71
-71 -152 -39 -82 -115 -245 -169 -363 -162 -358 -179 -381 -111 -149 79 271
225 656 250 662 23 7 101 8 101 2z m-190 -107 c-28 -51 -95 -181 -150 -288
-125 -247 -213 -411 -206 -385 16 67 209 723 217 737 10 19 36 24 127 27 l63
1 -51 -92z m-180 69 c0 -7 -20 -57 -44 -112 -24 -55 -85 -210 -136 -345 -105
-279 -151 -393 -156 -387 -6 6 31 182 66 317 64 242 158 501 193 525 26 18 77
20 77 2z m-130 -1 c0 -3 -29 -69 -63 -148 -35 -79 -97 -223 -137 -321 -40 -97
-75 -176 -77 -174 -3 4 61 208 135 427 63 188 66 200 48 200 -8 0 -23 -22 -34
-52 -62 -169 -252 -776 -252 -806 0 -14 -47 -39 -56 -30 -7 8 -23 229 -24 325
0 66 5 84 65 227 61 148 161 353 151 311 -3 -11 -28 -108 -55 -215 -76 -295
-129 -571 -104 -545 5 6 26 93 46 195 37 194 132 566 149 587 9 11 36 14 171
21 20 1 37 0 37 -2z m-270 -21 c0 -3 -16 -38 -36 -78 -20 -39 -59 -124 -86
-187 -27 -63 -52 -117 -55 -120 -14 -12 68 334 87 371 8 14 21 19 50 19 22 0
40 -2 40 -5z m-124 -22 c-3 -10 -21 -83 -40 -161 -19 -79 -36 -146 -39 -148
-5 -5 -27 233 -27 289 l0 37 56 0 c48 0 55 -2 50 -17z m2872 -168 c89 -60 161
-113 159 -119 -5 -14 -168 -156 -232 -201 -83 -59 -158 -106 -162 -101 -5 4
77 159 101 191 13 18 13 15 0 -29 -15 -52 -8 -74 20 -63 9 4 39 38 67 77 48
65 69 84 69 60 0 -5 7 -10 15 -10 11 0 15 11 15 38 0 79 -31 81 -82 3 -18 -28
-36 -51 -40 -51 -4 0 0 21 8 48 25 79 29 122 11 122 -17 0 -43 -39 -132 -202
-33 -59 -61 -106 -62 -104 -2 2 17 60 43 130 49 136 63 196 47 196 -18 0 -36
-28 -111 -174 -85 -164 -84 -155 9 92 71 187 78 216 57 210 -16 -4 -72 -115
-197 -386 -52 -111 -96 -201 -98 -199 -4 4 182 537 212 611 l15 36 53 -33 c28
-19 125 -82 215 -142z m-1298 -30 c-70 -204 -188 -485 -190 -453 0 15 94 274
151 414 91 222 92 224 96 221 2 -2 -24 -84 -57 -182z m-169 44 c-47 -114 -195
-508 -211 -566 -10 -34 -18 -42 -43 -47 -33 -7 -77 -8 -77 -2 0 10 363 716
366 713 3 -2 -13 -46 -35 -98z m-437 -135 c-36 -99 -90 -251 -120 -339 -58
-175 -55 -172 -141 -174 -24 -1 -43 2 -43 6 0 18 361 695 368 689 1 -2 -27
-84 -64 -182z m247 109 c-44 -102 -144 -373 -181 -488 -17 -55 -37 -103 -43
-107 -14 -9 -127 -11 -127 -2 0 6 54 109 188 359 84 156 182 319 188 312 2 -2
-9 -35 -25 -74z m-814 -249 c-93 -318 -101 -351 -87 -359 13 -8 69 93 209 373
67 133 123 242 125 242 2 0 -12 -44 -31 -97 -84 -233 -160 -510 -144 -526 6
-6 17 -7 25 -4 16 6 119 213 236 474 35 78 65 141 67 139 2 -1 -20 -70 -47
-152 -28 -82 -71 -219 -96 -304 -25 -85 -49 -158 -52 -162 -8 -7 -392 -41
-399 -35 -2 2 6 26 18 53 12 27 63 159 114 294 127 336 137 361 142 356 2 -2
-34 -133 -80 -292z m1629 145 c-65 -148 -283 -785 -293 -857 -6 -44 -5 -46 11
-32 21 17 131 235 286 565 120 257 152 315 95 170 -52 -131 -178 -480 -227
-629 l-43 -130 -64 -43 c-35 -24 -65 -42 -67 -40 -4 4 -33 283 -35 337 -2 36
5 55 32 96 19 28 99 180 179 337 138 272 178 344 126 226z m-1795 -170 c-39
-146 -71 -302 -71 -345 0 -28 -5 -36 -27 -45 -37 -14 -79 -8 -75 11 5 26 195
500 199 496 2 -2 -10 -55 -26 -117z m2289 -198 c-23 -59 -40 -86 -63 -103
l-32 -23 26 45 c15 25 41 74 58 109 18 34 35 61 37 58 3 -3 -9 -41 -26 -86z
m-216 -56 c-47 -133 -52 -165 -30 -165 19 0 30 15 98 137 33 59 57 99 53 88
-4 -11 -18 -51 -30 -90 -19 -56 -32 -78 -69 -112 -58 -52 -168 -135 -173 -130
-3 4 187 397 192 397 2 0 -16 -56 -41 -125z m-177 -113 c-78 -210 -115 -286
-132 -270 -5 4 7 42 24 85 57 135 184 413 187 410 2 -2 -34 -103 -79 -225z
m-667 24 c0 -3 -4 -8 -10 -11 -5 -3 -10 -1 -10 4 0 6 5 11 10 11 6 0 10 -2 10
-4z m-140 -65 c-24 -28 -47 -51 -52 -51 -5 0 12 24 39 54 60 68 70 65 13 -3z
m-70 40 c0 -12 -118 -121 -132 -121 -14 0 104 128 120 129 6 1 12 -3 12 -8z
m-180 -61 c-18 -22 -46 -48 -64 -56 -26 -14 -21 -6 28 45 67 68 86 74 36 11z
m-115 2 l-28 -27 23 33 c12 18 25 31 28 27 3 -3 -7 -18 -23 -33z m-136 -8
c-18 -20 -47 -45 -64 -57 -25 -17 -23 -13 13 26 23 26 42 51 42 57 0 5 10 10
22 10 20 0 19 -3 -13 -36z m818 -26 c-3 -8 -6 -5 -6 6 -1 11 2 17 5 13 3 -3 4
-12 1 -19z m-1460 -4 c-3 -3 -12 -4 -19 -1 -8 3 -5 6 6 6 11 1 17 -2 13 -5z
m1249 -29 c-11 -8 -27 -15 -35 -15 -13 1 -12 4 3 15 11 8 27 15 35 15 13 -1
12 -4 -3 -15z m-841 -35 c-10 -11 -23 -20 -29 -20 -6 1 0 10 13 20 30 26 39
26 16 0z m1820 -24 c-28 -37 -35 -42 -35 -27 0 13 51 73 57 67 3 -3 -7 -21
-22 -40z m-111 -68 c-9 -18 -19 -35 -22 -38 -8 -9 10 45 20 58 18 22 19 13 2
-20z m124 0 c-5 -14 -121 -99 -126 -93 -7 7 31 55 44 55 7 0 26 11 41 25 31
27 47 32 41 13z m-228 -162 c0 -3 -4 -8 -10 -11 -5 -3 -10 -1 -10 4 0 6 5 11
10 11 6 0 10 -2 10 -4z"/>
</g>
</svg>
